<svg width="25" height="25" viewBox="0 0 25 25" fill="none" xmlns="http://www.w3.org/2000/svg">
<g clip-path="url(#clip0_32_3)">
<path d="M22.9167 7.29165H15.625V5.20831H22.9167V7.29165ZM24.7146 17.7083C24.2542 19.0594 22.601 20.8333 19.401 20.8333C16.199 20.8333 13.6052 19.0323 13.6052 14.9219C13.6052 10.8489 16.0271 8.75519 19.299 8.75519C22.5094 8.75519 24.4698 10.6114 24.8979 13.3656C24.9792 13.8927 25.0115 14.6031 24.9969 15.5948H16.6354C16.7708 18.9396 20.2635 19.0448 21.4146 17.7083H24.7146ZM16.7083 13.5416H21.8802C21.7708 11.9302 20.6969 11.2302 19.3 11.2302C17.7729 11.2302 16.9281 12.0302 16.7083 13.5416ZM6.73542 20.8208H0V5.23019H7.24271C12.9469 5.31456 13.0552 10.901 10.076 12.4239C13.6813 13.7364 13.8021 20.8208 6.73542 20.8208ZM3.125 11.4583H6.85833C9.47083 11.4583 9.88542 8.33331 6.53333 8.33331H3.125V11.4583ZM6.65729 14.5833H3.125V17.725H6.60521C9.7875 17.725 9.59271 14.5833 6.65729 14.5833Z" fill="black"/>
</g>
<defs>
<clipPath id="clip0_32_3">
<rect width="25" height="25" fill="white"/>
</clipPath>
</defs>
</svg>
