<svg width="23" height="23" viewBox="0 0 23 23" fill="none" xmlns="http://www.w3.org/2000/svg">
<path fill-rule="evenodd" clip-rule="evenodd" d="M0.0417483 1.95627C0.0417483 1.44849 0.243463 0.961512 0.602517 0.602458C0.961571 0.243404 1.44855 0.0416896 1.95633 0.0416896H21.0417C21.2934 0.0412786 21.5426 0.0905051 21.7752 0.186551C22.0078 0.282596 22.2192 0.423575 22.3972 0.601415C22.5753 0.779255 22.7165 0.990464 22.8128 1.22295C22.9091 1.45544 22.9586 1.70463 22.9584 1.95627V21.0417C22.9587 21.2934 22.9093 21.5427 22.8132 21.7753C22.717 22.0078 22.5759 22.2192 22.398 22.3972C22.2201 22.5752 22.0088 22.7164 21.7763 22.8127C21.5437 22.909 21.2945 22.9585 21.0428 22.9584H1.95633C1.70482 22.9584 1.45577 22.9088 1.22341 22.8125C0.991056 22.7162 0.779948 22.5751 0.602148 22.3972C0.424349 22.2193 0.283344 22.0081 0.187188 21.7757C0.0910327 21.5433 0.0416115 21.2942 0.0417483 21.0427V1.95627ZM9.11258 8.77919H12.2157V10.3375C12.6636 9.44169 13.8095 8.63544 15.5313 8.63544C18.8324 8.63544 19.6147 10.4198 19.6147 13.6938V19.7584H16.274V14.4396C16.274 12.575 15.8261 11.5229 14.6886 11.5229C13.1105 11.5229 12.4542 12.6573 12.4542 14.4396V19.7584H9.11258V8.77919ZM3.38342 19.6156H6.72508V8.63544H3.38342V19.6146V19.6156ZM7.20321 5.05419C7.20951 5.34031 7.1586 5.6248 7.05346 5.89098C6.94832 6.15715 6.79107 6.39964 6.59095 6.60422C6.39082 6.8088 6.15185 6.97135 5.88806 7.08232C5.62426 7.19329 5.34096 7.25046 5.05477 7.25046C4.76858 7.25046 4.48528 7.19329 4.22148 7.08232C3.95769 6.97135 3.71872 6.8088 3.51859 6.60422C3.31847 6.39964 3.16122 6.15715 3.05608 5.89098C2.95094 5.6248 2.90003 5.34031 2.90633 5.05419C2.9187 4.49258 3.15048 3.95814 3.55205 3.56532C3.95361 3.1725 4.49302 2.95254 5.05477 2.95254C5.61652 2.95254 6.15593 3.1725 6.55749 3.56532C6.95906 3.95814 7.19084 4.49258 7.20321 5.05419Z" fill="black"/>
</svg>
