<?xml version="1.0" encoding="utf-8"?>
<!-- Generator: Adobe Illustrator 25.2.1, SVG Export Plug-In . SVG Version: 6.00 Build 0)  -->
<svg version="1.1" id="Capa_1" xmlns="http://www.w3.org/2000/svg" xmlns:xlink="http://www.w3.org/1999/xlink" x="0px" y="0px"
	 viewBox="0 0 800 800" style="enable-background:new 0 0 800 800;" xml:space="preserve">
<g>
	<path d="M359.3,474.6c25.6,25.6,50.5,50.4,75.1,75c-11.7,11.6-23,22.9-35.2,35.1c-6.6-6.9-13.4-14.2-20.5-21.3
		c-31.7-31.8-63.4-63.5-95.1-95.2c-36.7-36.8-37.7-97.3-1.8-134.7c22.1-23,45.1-45.2,67.5-67.6c11.3,11.4,22.6,22.8,34.5,34.8
		c-6.7,6.6-13.9,13.5-21,20.6c-14.5,14.4-29,28.8-43.4,43.4c-20.5,20.8-20.2,50.3,0.4,71c1.6,1.6,2.9,3.4,4.3,5.2
		c33.8-33.9,66.8-67.1,99.8-100.2c11.8,12.1,23.1,23.5,34.4,35.1C426,408.1,392.8,441.2,359.3,474.6z"/>
	<path d="M366.2,249.6c11.4-11.4,22.7-22.6,34.4-34.3c0.8,0.8,2,1.8,3,2.9c31.8,31.9,63.7,63.7,95.4,95.6c8.8,8.8,18.1,17.2,25.8,27
		c29.2,37.1,27.5,93-9.8,129.5c-20.7,20.2-40.9,40.8-61.4,61.2c-0.4,0.4-1,0.8-1.3,1c-11.3-11.4-22.5-22.7-34.7-35
		c5-4.7,10.5-9.6,15.8-14.9c16.1-16,32.2-32,48.1-48.1c19.7-19.9,19.7-49.7-0.1-69.6c-37.4-37.6-74.9-75-112.4-112.5
		C368.1,251.6,367.1,250.5,366.2,249.6z"/>
</g>
</svg>
